<?xml version="1.0" encoding="UTF-8"?>
<svg width="757px" height="389px" viewBox="0 0 757 389" version="1.1" xmlns="http://www.w3.org/2000/svg" xmlns:xlink="http://www.w3.org/1999/xlink">
    <!-- Generator: Sketch 51.2 (57519) - http://www.bohemiancoding.com/sketch -->
    <title>Diamo-Logotipo</title>
    <desc>Created with Sketch.</desc>
    <defs></defs>
    <g id="Page-1" stroke="none" stroke-width="1" fill="none" fill-rule="evenodd">
        <g id="Diamo-Logotipo" fill-rule="nonzero">
            <path d="M249.225718,232.639083 C252.985864,227.29969 254.864012,220.389887 254.864012,211.906802 C254.864012,200.044463 251.850889,191.56042 245.826569,186.459461 C242.129959,183.375138 237.837463,181.83154 232.947155,181.83154 C225.490399,181.83154 220.021533,184.634338 216.532857,190.239935 C213.043218,195.846489 211.299843,202.801298 211.299843,211.105318 C211.299843,220.062399 213.073061,227.225 216.622384,232.594077 C220.16882,237.963155 225.551046,240.646258 232.766175,240.646258 C239.982267,240.646258 245.469423,237.976561 249.225718,232.639083 M242.964584,163.546799 C247.558393,166.1284 251.283883,169.702039 254.145868,174.269634 L254.145868,128 L280,128 L280,258.976004 L255.220196,258.976004 L255.220196,245.540382 C251.580382,251.294402 247.43806,255.477054 242.787455,258.086424 C238.133962,260.696751 232.349344,262 225.434565,262 C214.042458,262 204.4563,257.418042 196.674165,248.255084 C188.891068,239.089254 185,227.330332 185,212.973531 C185,196.423902 188.831383,183.404822 196.497036,173.912461 C204.155951,164.422973 214.398642,159.675356 227.222222,159.675356 C233.127172,159.675356 238.374626,160.966156 242.964584,163.546799" id="Shape" fill="#2B2A25"></path>
            <path d="M306,162.673222 L332,162.673222 L332,260 L306,260 L306,162.673222 Z M332,152.484387 L306,152.484387 L306,129 L332,129 L332,152.484387 Z" id="Shape" fill="#2B2A25"></path>
            <path d="M410.034533,213.485574 C408.395315,214.502475 406.740642,215.322743 405.074378,215.94927 C403.405216,216.57676 401.11688,217.157984 398.203574,217.695833 L392.380826,218.769603 C386.923207,219.726743 383.003381,220.891118 380.625211,222.263693 C376.596233,224.59148 374.580295,228.206057 374.580295,233.100675 C374.580295,237.459372 375.812847,240.611282 378.273122,242.549659 C380.7305,244.490927 383.723014,245.460598 387.25163,245.460598 C392.840618,245.460598 397.989133,243.848979 402.696209,240.624777 C407.407148,237.399611 409.850036,231.518936 410.034533,222.979861 L410.034533,213.485574 Z M394.3929,201.574823 C399.153103,200.979141 402.557112,200.230201 404.606858,199.33475 C408.286163,197.783855 410.125332,195.365463 410.125332,192.080536 C410.125332,188.080405 408.715045,185.317905 405.892538,183.794963 C403.072929,182.272022 398.934798,181.512479 393.473316,181.512479 C387.349191,181.512479 383.011108,183.00554 380.462932,185.989734 C378.643081,188.198963 377.428882,191.185085 376.826129,194.946172 L352.143202,194.946172 C352.682202,186.409025 355.086453,179.392892 359.353055,173.897772 C366.144651,165.300864 377.802705,161 394.329148,161 C405.08597,161 414.644047,163.121515 422.995653,167.359726 C431.348225,171.599865 435.527892,179.602055 435.527892,191.364368 L435.527892,236.146558 C435.527892,239.251238 435.583917,243.012325 435.704661,247.431747 C435.886259,250.776434 436.390485,253.04446 437.230862,254.238716 C438.068341,255.432972 439.326974,256.418065 441,257.194958 L441,260.956045 L413.177735,260.956045 C412.397247,258.984896 411.858247,257.134233 411.560734,255.403092 C411.259358,253.670987 411.021734,251.701766 410.841101,249.490609 C407.290268,253.313385 403.197537,256.566504 398.565805,259.25382 C393.028979,262.419225 386.768655,264 379.784835,264 C370.878773,264 363.518232,261.478472 357.713837,256.433487 C351.901715,251.387539 349,244.238389 349,234.981218 C349,222.979861 353.673267,214.292348 363.016904,208.917714 C368.138372,205.994245 375.676648,203.90261 385.623038,202.648593 L394.3929,201.574823 Z" id="Shape" fill="#2B2A25"></path>
            <path d="M578.18343,163.512704 C582.363267,165.189771 586.151998,168.122708 589.553474,172.310547 C592.297005,175.72168 594.146576,179.911452 595.101224,184.876964 C595.698481,188.170238 596,192.986978 596,199.329115 L595.818896,261 L569.681183,261 L569.681183,198.701181 C569.681183,194.992503 569.083926,191.939776 567.892301,189.545897 C565.62176,184.99772 561.445776,182.723632 555.360494,182.723632 C548.316712,182.723632 543.452918,185.655602 540.769113,191.520509 C539.397348,194.632166 538.709539,198.373689 538.709539,202.740248 L538.709539,261 L513.018805,261 L513.018805,202.740248 C513.018805,196.937168 512.421548,192.717449 511.229923,190.084955 C509.079797,185.358058 504.87395,182.99316 498.608528,182.99316 C491.327769,182.99316 486.434112,185.358058 483.930448,190.084955 C482.55483,192.77831 481.870874,196.786464 481.870874,202.113279 L481.870874,261 L456,261 L456,163.333984 L480.795811,163.333984 L480.795811,177.606449 C483.956458,172.521147 486.940818,168.899415 489.745037,166.745117 C494.699383,162.915683 501.115082,161 508.993099,161 C516.451108,161 522.479554,162.646154 527.072655,165.93653 C530.771797,168.989257 533.578906,172.9095 535.488203,177.697258 C538.829954,171.95021 542.976075,167.732423 547.929458,165.039067 C553.180505,162.345712 559.02881,161 565.475336,161 C569.771735,161 574.007445,161.8395 578.18343,163.512704" id="Shape" fill="#2B2A25"></path>
            <path d="M679.145521,234.655997 C683.155723,229.353561 685.161307,221.817454 685.161307,212.044789 C685.161307,202.275013 683.155723,194.751429 679.145521,189.479814 C675.134353,184.207237 669.390036,181.569022 661.911604,181.569022 C654.429307,181.569022 648.669533,184.207237 644.628416,189.479814 C640.591164,194.751429 638.571089,202.275013 638.571089,212.044789 C638.571089,221.817454 640.591164,229.353561 644.628416,234.655997 C648.669533,239.96036 654.429307,242.610134 661.911604,242.610134 C669.390036,242.610134 675.134353,239.96036 679.145521,234.655997 M699.613877,248.755374 C691.354851,258.9191 678.818019,264 662.002415,264 C645.182947,264 632.645149,258.9191 624.386123,248.755374 C616.127098,238.590685 612,226.354144 612,212.044789 C612,197.977198 616.127098,185.784002 624.386123,175.470979 C632.645149,165.156993 645.182947,160 662.002415,160 C678.818019,160 691.354851,165.156993 699.613877,175.470979 C707.872902,185.784002 712,197.977198 712,212.044789 C712,226.354144 707.872902,238.590685 699.613877,248.755374" id="Shape" fill="#2B2A25"></path>
            <path d="M745.637506,168.328822 C745.139575,168.136432 744.437638,168.040721 743.53266,168.040721 L742.649921,168.040721 L742.649921,172.059631 L744.060564,172.059631 C744.905596,172.059631 745.569826,171.889478 746.044553,171.550137 C746.520246,171.210797 746.758093,170.663599 746.758093,169.905642 C746.758093,169.147686 746.384886,168.622723 745.637506,168.328822 Z M739.020343,179.454542 L739.020343,165.597664 C739.880845,165.597664 741.166763,165.599598 742.880032,165.605399 C744.592335,165.611199 745.546622,165.6199 745.739026,165.631502 C746.833507,165.710778 747.74622,165.948606 748.470395,166.344986 C749.700236,167.021733 750.319024,168.124831 750.319024,169.651379 C750.319024,170.81635 749.99126,171.65745 749.342499,172.174678 C748.692772,172.690939 747.893182,173.000309 746.942762,173.102788 C747.8139,173.283576 748.470395,173.551375 748.912248,173.90425 C749.72344,174.562628 750.130487,175.598051 750.130487,177.012452 L750.130487,178.249932 C750.130487,178.385282 750.142089,178.521598 750.156592,178.656947 C750.175929,178.793263 750.209769,178.928613 750.259079,179.064929 L750.386704,179.454542 L746.924392,179.454542 C746.810303,179.01369 746.734888,178.374647 746.697181,177.536448 C746.655606,176.701149 746.580191,176.135581 746.467069,175.840713 C746.286267,175.356356 745.9469,175.017015 745.448969,174.824626 C745.177283,174.711512 744.766369,174.638037 744.211393,174.6042 L743.415671,174.55296 L742.649921,174.55296 L742.649921,179.454542 L739.020343,179.454542 Z M737.157211,165.258324 C735.165487,167.293399 734.168658,169.707452 734.168658,172.500483 C734.168658,175.39406 735.183857,177.853552 737.205554,179.877025 C739.220482,181.903399 741.650191,182.913686 744.502417,182.913686 C747.339173,182.913686 749.765015,181.895665 751.775109,179.86059 C753.790038,177.813914 754.797502,175.360223 754.797502,172.500483 C754.797502,169.719053 753.793905,167.305 751.794446,165.258324 C749.767916,163.17781 747.339173,162.136587 744.502417,162.136587 C741.626987,162.136587 739.178907,163.17781 737.157211,165.258324 Z M753.254399,181.473181 C750.820822,183.825361 747.904784,185 744.502417,185 C740.982094,185 738.020613,183.796357 735.614108,181.388105 C733.203736,178.979852 732,176.016667 732,172.500483 C732,168.847017 733.301388,165.81229 735.900298,163.392436 C738.34161,161.131134 741.208338,160 744.502417,160 C747.950226,160 750.896237,161.222012 753.337549,163.664101 C755.777894,166.107158 757,169.051007 757,172.500483 C757,176.050505 755.751789,179.041726 753.254399,181.473181 Z" id="Shape" fill="#2B2A25"></path>
            <polygon id="Shape" fill="#2B2A25" points="182 389 182 331.192047 0 143 0 258.606251 126.101621 389"></polygon>
            <polygon id="Shape" fill="#3654CD" points="182 57.648807 182 0 126.22336 0 3 127.351193 58.7804945 185"></polygon>
        </g>
    </g>
</svg>